{
  "accessors": [
    {
      "bufferView": 2,
      "componentType": 5126,
      "count": 23574,
      "max": [
        13.773960113525391,
        10.347774505615234,
        8.2949094772338867
      ],
      "min": [
        0,
        0,
        0
      ],
      "type": "VEC3"
    },
    {
      "bufferView": 2,
      "byteOffset": 282888,
      "componentType": 5126,
      "count": 23574,
      "max": [
        0.99961864948272705,
        0.99985826015472412,
        0.99997150897979736
      ],
      "min": [
        -0.99987334012985229,
        -0.99983566999435425,
        -0.99999511241912842
      ],
      "type": "VEC3"
    },
    {
      "bufferView": 1,
      "componentType": 5126,
      "count": 23574,
      "max": [
        0.99254101514816284,
        0.99959897994995117
      ],
      "min": [
        0.00086299999384209514,
        0.0039059999398887157
      ],
      "type": "VEC2"
    },
    {
      "bufferView": 3,
      "componentType": 5126,
      "count": 23574,
      "max": [
        0.9977186918258667,
        0.99995201826095581,
        0.99992930889129639,
        1
      ],
      "min": [
        -0.99982959032058716,
        -0.99974864721298218,
        -0.9998127818107605,
        -1
      ],
      "type": "VEC4"
    },
    {
      "bufferView": 0,
      "componentType": 5125,
      "count": 108369,
      "max": [
        23573
      ],
      "min": [
        0
      ],
      "type": "SCALAR"
    }
  ],
  "asset": {
    "generator": "Sketchfab (OSG glTF plugin)",
    "version": "2.0"
  },
  "bufferViews": [
    {
      "buffer": 0,
      "byteLength": 433476,
      "byteOffset": 0,
      "name": "ScalarBufferView",
      "target": 34963
    },
    {
      "buffer": 0,
      "byteLength": 188592,
      "byteOffset": 433476,
      "byteStride": 8,
      "name": "Vec3BufferView",
      "target": 34962
    },
    {
      "buffer": 0,
      "byteLength": 565776,
      "byteOffset": 622068,
      "byteStride": 12,
      "name": "Vec4BufferView",
      "target": 34962
    },
    {
      "buffer": 0,
      "byteLength": 377184,
      "byteOffset": 1187844,
      "byteStride": 16,
      "name": "MatrixBufferView",
      "target": 34962
    }
  ],
  "buffers": [
    {
      "byteLength": 1565028,
      "uri": "scene.bin"
    }
  ],
  "extensionsRequired": [
    "KHR_materials_pbrSpecularGlossiness"
  ],
  "extensionsUsed": [
    "KHR_materials_pbrSpecularGlossiness"
  ],
  "images": [
    {
      "uri": "textures/Drevo_specularGlossiness.png"
    },
    {
      "uri": "textures/Drevo_diffuse.png"
    }
  ],
  "materials": [
    {
      "doubleSided": false,
      "extensions": {
        "KHR_materials_pbrSpecularGlossiness": {
          "diffuseFactor": [
            1,
            1,
            1,
            1
          ],
          "diffuseTexture": {
            "index": 1,
            "texCoord": 0
          },
          "glossinessFactor": 0,
          "specularFactor": [
            0.65742423319999999,
            0.65742423319999999,
            0.65742423319999999
          ],
          "specularGlossinessTexture": {
            "index": 0,
            "texCoord": 0
          }
        }
      },
      "name": "Drevo"
    }
  ],
  "meshes": [
    {
      "primitives": [
        {
          "attributes": {
            "NORMAL": 1,
            "POSITION": 0,
            "TANGENT": 3,
            "TEXCOORD_0": 2
          },
          "indices": 4,
          "material": 0,
          "mode": 4
        }
      ]
    }
  ],
  "nodes": [
    {
      "children": [
        1
      ],
      "name": "RootNode (gltf orientation matrix)",
      "rotation": [
        -0.70710678118654746,
        -0,
        -0,
        0.70710678118654757
      ]
    },
    {
      "children": [
        2
      ],
      "matrix": [
        0.98057591915130615,
        0,
        -0.19613996148109436,
        0,
        0.12200261652469635,
        -0.78300285339355469,
        0.60993599891662598,
        0,
        -0.15357814729213715,
        -0.62201815843582153,
        -0.76779371500015259,
        0,
        1.1360414028167725,
        -16.150623321533203,
        5.8371791839599609,
        1
      ],
      "name": "RootNode (model correction matrix)"
    },
    {
      "children": [
        3
      ],
      "matrix": [
        1,
        0,
        0,
        0,
        0,
        1,
        0,
        0,
        0,
        0,
        1,
        0,
        -7.6364541053771973,
        -14.312925338745117,
        -3.9155418872833252,
        1
      ],
      "name": "Drevo.obj.cleaner.gles"
    },
    {
      "mesh": 0,
      "name": ""
    }
  ],
  "samplers": [
    {
      "magFilter": 9729,
      "minFilter": 9987,
      "wrapS": 10497,
      "wrapT": 10497
    }
  ],
  "scene": 0,
  "scenes": [
    {
      "name": "OSG_Scene",
      "nodes": [
        0
      ]
    }
  ],
  "textures": [
    {
      "sampler": 0,
      "source": 0
    },
    {
      "sampler": 0,
      "source": 1
    }
  ]
}

